
  <svg width="160.5" height="48" viewBox="0 0 856 256" fill="none" xmlns="http://www.w3.org/2000/svg" xmlns:xlink="http://www.w3.org/1999/xlink" version="1.1">
    
        <g transform="translate(0, 0)">
          <svg width="256" height="256" viewBox="0 0 256 256" fill="none" xmlns="http://www.w3.org/2000/svg">
<rect width="256" height="256" rx="60" fill="#470137"/>
<path d="M134.239 80.2153L104.239 129.715L136.239 182.215C136.439 182.615 136.539 183.015 136.439 183.415C136.339 183.815 135.939 183.515 135.339 183.615H112.439C110.839 183.615 109.739 183.515 109.039 182.515C106.939 178.315 104.739 174.215 102.639 170.015C100.539 165.915 98.2392 161.715 95.8392 157.415C93.4392 153.115 91.0392 148.815 88.6392 144.415H88.4392C86.3392 148.715 84.0392 153.015 81.7392 157.315C79.4392 161.615 77.1392 165.915 74.9392 170.115C72.6392 174.315 70.3392 178.615 68.0392 182.715C67.6392 183.715 66.8392 183.815 65.7392 183.815H43.7392C43.3392 183.815 43.0392 184.015 43.0392 183.515C42.9392 183.115 43.0392 182.715 43.2392 182.415L74.3392 131.415L44.0392 80.1153C43.7392 79.7153 43.6392 79.3153 43.8392 79.1153C44.0392 78.8153 44.4392 78.7153 44.8392 78.7153H67.5392C68.0392 78.7153 68.5392 78.8153 68.9392 78.9153C69.3392 79.1153 69.6392 79.4153 69.9392 79.8153C71.8392 84.1153 74.0392 88.4153 76.3392 92.7153C78.7392 97.0153 81.0392 101.215 83.5392 105.415C85.9392 109.615 88.1392 113.815 90.2392 118.115H90.4392C92.5392 113.715 94.7392 109.415 96.9392 105.215C99.1392 101.015 101.439 96.8153 103.739 92.6153C106.039 88.4153 108.239 84.1153 110.439 80.0153C110.539 79.6153 110.739 79.2153 111.039 79.0153C111.439 78.8153 111.839 78.7153 112.339 78.8153H133.439C133.939 78.7153 134.439 79.0153 134.539 79.5153C134.639 79.6153 134.439 80.0153 134.239 80.2153Z" fill="#FF61F6"/>
<path d="M180.439 185.716C173.039 185.816 165.639 184.316 158.939 181.216C152.639 178.316 147.439 173.516 143.839 167.616C140.139 161.516 138.339 153.916 138.339 144.816C138.239 137.416 140.139 130.116 143.839 123.716C147.639 117.216 153.139 111.816 159.739 108.216C166.739 104.316 175.139 102.416 185.039 102.416C185.539 102.416 186.239 102.416 187.139 102.516C188.039 102.616 189.039 102.616 190.239 102.716V71.1155C190.239 70.4155 190.539 70.0155 191.239 70.0155H211.539C212.039 69.9155 212.439 70.3155 212.539 70.7155C212.539 70.8155 212.539 70.9155 212.539 70.9155V166.116C212.539 167.916 212.639 169.916 212.739 172.116C212.939 174.216 213.039 176.216 213.139 177.916C213.139 178.616 212.839 179.216 212.139 179.516C206.939 181.716 201.439 183.316 195.839 184.316C190.739 185.216 185.639 185.716 180.439 185.716ZM190.239 165.716V121.716C189.339 121.516 188.439 121.316 187.539 121.216C186.439 121.116 185.339 121.016 184.239 121.016C180.339 121.016 176.439 121.816 172.939 123.616C169.539 125.316 166.639 127.816 164.439 131.016C162.239 134.216 161.139 138.516 161.139 143.716C161.039 147.216 161.639 150.716 162.839 154.016C163.839 156.716 165.339 159.116 167.339 161.116C169.239 162.916 171.539 164.316 174.139 165.116C176.839 166.016 179.639 166.416 182.439 166.416C183.939 166.416 185.339 166.316 186.639 166.216C187.939 166.316 189.039 166.116 190.239 165.716Z" fill="#FF61F6"/>
</svg>

        </g>
         
        <g transform="translate(300, 0)">
          <svg xmlns="http://www.w3.org/2000/svg" width="256" height="256" fill="none" viewBox="0 0 256 256"><rect width="256" height="256" fill="#242938" rx="60"/><g clip-path="url(#clip0_4_180)"><path fill="#0ACF83" d="M94.3467 228C112.747 228 127.68 213.067 127.68 194.667V161.333H94.3467C75.9467 161.333 61.0133 176.267 61.0133 194.667C61.0133 213.067 75.9467 228 94.3467 228Z"/><path fill="#A259FF" d="M61.0133 128C61.0133 109.6 75.9467 94.6667 94.3467 94.6667H127.68V161.333H94.3467C75.9467 161.333 61.0133 146.4 61.0133 128Z"/><path fill="#F24E1E" d="M61.0133 61.3333C61.0133 42.9333 75.9467 28 94.3467 28H127.68V94.6667H94.3467C75.9467 94.6667 61.0133 79.7333 61.0133 61.3333Z"/><path fill="#FF7262" d="M127.68 28H161.013C179.413 28 194.347 42.9333 194.347 61.3333C194.347 79.7333 179.413 94.6667 161.013 94.6667H127.68V28Z"/><path fill="#1ABCFE" d="M194.347 128C194.347 146.4 179.413 161.333 161.013 161.333C142.613 161.333 127.68 146.4 127.68 128C127.68 109.6 142.613 94.6667 161.013 94.6667C179.413 94.6667 194.347 109.6 194.347 128Z"/></g><defs><clipPath id="clip0_4_180"><rect width="133.36" height="200" fill="#fff" transform="translate(61 28)"/></clipPath></defs></svg>
        </g>
         
        <g transform="translate(600, 0)">
          <svg xmlns="http://www.w3.org/2000/svg" width="256" height="256" fill="none" viewBox="0 0 256 256"><rect width="256" height="256" fill="#001E36" rx="60"/><path fill="#31A8FF" d="M57.6001 178.04V68.2799C57.6001 67.5332 57.9201 67.1066 58.6668 67.1066C60.4801 67.1066 62.1868 67.1066 64.6401 66.9999C67.2001 66.8932 69.8668 66.8932 72.7468 66.7866C75.6268 66.6799 78.7201 66.6799 82.0268 66.5732C85.3334 66.4666 88.5334 66.4666 91.7334 66.4666C100.48 66.4666 107.733 67.5332 113.707 69.7732C119.04 71.5866 123.947 74.5732 128 78.5199C131.413 81.9332 134.08 86.0932 135.787 90.6799C137.387 95.1599 138.24 99.7466 138.24 104.547C138.24 113.72 136.107 121.293 131.84 127.267C127.573 133.24 121.6 137.72 114.667 140.28C107.413 142.947 99.4134 143.907 90.6668 143.907C88.1068 143.907 86.4001 143.907 85.3334 143.8C84.2668 143.693 82.7734 143.693 80.7468 143.693V177.933C80.8534 178.68 80.3201 179.32 79.5734 179.427C79.4668 179.427 79.3601 179.427 79.1468 179.427H58.8801C58.0268 179.427 57.6001 179 57.6001 178.04ZM80.8534 87.6932V123.533C82.3468 123.64 83.7334 123.747 85.0134 123.747H90.6668C94.8268 123.747 98.9868 123.107 102.933 121.827C106.347 120.867 109.333 118.84 111.68 116.173C113.92 113.507 114.987 109.88 114.987 105.187C115.093 101.88 114.24 98.5732 112.533 95.6932C110.72 92.9199 108.16 90.7866 105.067 89.6132C101.12 88.0132 96.8534 87.3732 92.4801 87.4799C89.7068 87.4799 87.2534 87.4799 85.2268 87.5866C83.0934 87.4799 81.6001 87.5866 80.8534 87.6932Z"/><path fill="#31A8FF" d="M204.8 117.027C201.6 115.32 198.187 114.147 194.56 113.4C190.613 112.547 186.667 112.013 182.613 112.013C180.48 111.907 178.24 112.227 176.213 112.76C174.827 113.08 173.653 113.827 172.907 114.893C172.373 115.747 172.053 116.813 172.053 117.773C172.053 118.733 172.48 119.693 173.12 120.547C174.08 121.72 175.36 122.68 176.747 123.427C179.2 124.707 181.76 125.88 184.32 126.947C190.08 128.867 195.627 131.533 200.747 134.733C204.267 136.973 207.147 139.96 209.173 143.587C210.88 147 211.733 150.733 211.627 154.573C211.733 159.587 210.24 164.6 207.467 168.76C204.48 173.027 200.32 176.333 195.52 178.253C190.293 180.493 183.893 181.667 176.213 181.667C171.307 181.667 166.507 181.24 161.707 180.28C157.973 179.64 154.24 178.467 150.827 176.867C150.08 176.44 149.547 175.693 149.653 174.84V156.28C149.653 155.96 149.76 155.533 150.08 155.32C150.4 155.107 150.72 155.213 151.04 155.427C155.2 157.88 159.573 159.587 164.267 160.653C168.32 161.72 172.587 162.253 176.853 162.253C180.907 162.253 183.787 161.72 185.707 160.76C187.413 160.013 188.587 158.2 188.587 156.28C188.587 154.787 187.733 153.4 186.027 152.013C184.32 150.627 180.8 149.027 175.573 147C170.133 145.08 165.12 142.52 160.427 139.32C157.12 136.973 154.347 133.88 152.32 130.253C150.613 126.84 149.76 123.107 149.867 119.373C149.867 114.787 151.147 110.413 153.493 106.467C156.16 102.2 160.107 98.7866 164.693 96.6532C169.707 94.0932 176 92.9199 183.573 92.9199C187.947 92.9199 192.427 93.2399 196.8 93.8799C200 94.3066 203.093 95.1599 205.973 96.3332C206.4 96.4399 206.827 96.8666 207.04 97.2932C207.147 97.7199 207.253 98.1466 207.253 98.5732V115.96C207.253 116.387 207.04 116.813 206.72 117.027C205.76 117.24 205.227 117.24 204.8 117.027Z"/></svg>
        </g>
        
  </svg>
  